<?xml version="1.0" encoding="utf-8"?>
<!-- Generator: Adobe Illustrator 16.0.0, SVG Export Plug-In . SVG Version: 6.00 Build 0)  -->
<!DOCTYPE svg PUBLIC "-//W3C//DTD SVG 1.1//EN" "http://www.w3.org/Graphics/SVG/1.1/DTD/svg11.dtd">
<svg version="1.1" id="Layer_1" xmlns="http://www.w3.org/2000/svg" xmlns:xlink="http://www.w3.org/1999/xlink" x="0px" y="0px"
	 width="720px" height="720px" viewBox="0 0 720 720" enable-background="new 0 0 720 720" xml:space="preserve">
<g>
	<g>
		<defs>
			<path id="SVGID_1_" d="M360,182.925h-88.535c-48.901,0-88.541,39.638-88.541,88.539V360v88.536
				c0,48.901,39.64,88.539,88.541,88.539H360h88.542c48.896,0,88.534-39.638,88.534-88.539V360v-88.536
				c0-48.901-39.639-88.539-88.534-88.539H360z"/>
		</defs>
		<use xlink:href="#SVGID_1_"  overflow="visible" fill="#070707"/>
		<clipPath id="SVGID_2_">
			<use xlink:href="#SVGID_1_"  overflow="visible"/>
		</clipPath>
		
			<rect x="109.577" y="109.577" transform="matrix(-0.7071 0.7071 -0.7071 -0.7071 869.1169 360)" clip-path="url(#SVGID_2_)" fill="#070707" width="500.846" height="500.846"/>
	</g>
	<g>
		<path fill-rule="evenodd" clip-rule="evenodd" fill="#FFFFFF" d="M320.11,332.721c-0.352-0.331-0.692-0.656-1.044-0.969
			c-1.573-1.39-3.147-2.769-4.722-4.147c-0.888-0.771-1.76-1.529-2.569-2.37c-0.741-0.773-1.409-1.607-1.878-2.582
			c-0.237-0.494-0.436-1.013-0.551-1.556c-0.08-0.383-0.143-0.763-0.202-1.143c-0.095-0.607-0.08-1.222-0.072-1.829
			c0.009-0.432,0.075-0.839,0.191-1.249c0.531-1.838,1.709-3.1,3.535-3.778c0.391-0.149,0.794-0.247,1.217-0.282
			c0.349-0.024,0.694-0.063,1.043-0.047c0.318,0.012,0.642,0.063,0.951,0.12c1.569,0.301,2.771,1.167,3.729,2.389
			c0.176,0.226,0.326,0.459,0.5,0.7c0.024-0.041,0.053-0.079,0.077-0.116c0.634-0.973,1.447-1.765,2.482-2.329
			c0.563-0.294,1.16-0.508,1.792-0.616c0.435-0.074,0.871-0.101,1.311-0.071c0.432,0.024,0.869,0.084,1.294,0.201
			c1.745,0.48,2.977,1.536,3.707,3.154c0.191,0.429,0.308,0.874,0.381,1.338c0.08,0.516,0.089,1.023,0.064,1.548
			c-0.018,0.339-0.036,0.679-0.096,1.021c-0.066,0.445-0.153,0.893-0.266,1.327c-0.371,1.431-1.185,2.611-2.193,3.673
			c-0.88,0.929-1.859,1.759-2.838,2.579c-1.769,1.487-3.553,2.959-5.266,4.506C320.497,332.368,320.31,332.539,320.11,332.721"/>
		<path fill="#FFFFFF" d="M303.424,338.006c-2.05,2.675-3.069,6.063-3.069,10.15v31.81c0,6.691-1.255,12.33-3.76,16.915
			c-2.507,4.576-6.085,8.026-10.745,10.354H272.62c2.646-2.536,4.631-5.688,5.955-9.461c1.319-3.771,1.984-8.435,1.984-13.999
			v-35.618c0-3.812-0.734-6.768-2.191-8.882l-0.985-1.269H303.424z"/>
		<path fill="#FFFFFF" d="M333.167,390.615H307.23c1.063-1.268,1.817-2.785,2.276-4.553c0.46-1.765,0.688-4.056,0.688-6.879v-31.122
			c0-4.229-0.988-7.585-2.965-10.056h25.937l-0.742,1.271c-1.625,2.821-2.431,5.753-2.431,8.785v31.231
			c0,2.82,0.243,5.06,0.739,6.718C331.225,387.67,332.035,389.203,333.167,390.615"/>
		<path fill="#FFFFFF" d="M393.4,371.353c-2.475,8.398-8.577,14.287-18.313,17.675c-1.907,0.632-3.797,1.062-5.669,1.272
			c-1.867,0.21-5.203,0.315-9.999,0.315h-22.337c1.127-1.412,1.903-2.872,2.329-4.393c0.421-1.518,0.634-3.827,0.634-6.93v-48.801
			c0-5.223-0.179-8.752-0.529-10.587c-0.353-1.832-1.199-3.667-2.539-5.505h25.83l-0.638,1.374
			c-0.848,1.764-1.448,3.707-1.804,5.827c-0.351,2.115-0.526,5.041-0.526,8.782v16.516l3.918-4.028l3.704-4.759
			c0.846-0.212,1.587-0.389,2.227-0.529c0.631-0.142,1.198-0.215,1.688-0.215c0.569-0.067,1.133-0.103,1.697-0.103h1.273
			c6.204,0,11.253,1.943,15.137,5.819c3.876,3.882,5.82,9.246,5.82,16.093C395.304,362.845,394.671,366.906,393.4,371.353
			 M375.51,365.95c0-2.894-0.126-5.307-0.37-7.251c-0.249-1.938-0.744-3.757-1.482-5.45c-0.742-1.691-1.733-3.019-2.966-3.969
			c-1.236-0.953-2.563-1.431-3.966-1.431c-1.486,0-2.935,0.529-4.344,1.585l-0.953,0.638l-0.843,0.739l-0.746,0.638v28.896
			l1.06,0.215c0.49,0.07,0.954,0.105,1.381,0.105h0.739c3.665,0,6.562-1.197,8.683-3.6
			C373.816,374.673,375.088,370.962,375.51,365.95"/>
		<path fill="#FFFFFF" d="M447.38,365.421l-0.103,2.015h-26.886l0.212,2.329c0.632,3.317,1.922,5.836,3.862,7.565
			c1.941,1.731,4.678,2.593,8.207,2.593c3.176,0,7.09-0.842,11.748-2.539l2.433-0.952c-0.776,1.126-1.482,2.223-2.112,3.279
			c-0.638,1.059-1.205,2.171-1.699,3.339c-0.494,1.164-0.842,1.992-1.053,2.486c-0.636,1.412-1.135,2.753-1.482,4.021
			c-1.417,0.426-2.913,0.801-4.495,1.113c-1.597,0.317-3.027,0.475-4.295,0.475c-10.166,0-17.922-2.009-23.286-6.034
			c-5.646-4.232-8.469-10.549-8.469-18.945c0-2.685,0.314-5.679,0.95-9.002c0.99-4.797,2.909-8.836,5.771-12.12
			c2.856-3.279,6.371-5.52,10.533-6.722c1.765-0.564,3.401-0.953,4.921-1.162c1.518-0.214,3.125-0.317,4.818-0.317
			c6.63,0,11.7,2.451,15.191,7.356C445.638,349.106,447.38,356.175,447.38,365.421 M431.717,356.951c0-3.952-0.401-6.77-1.211-8.464
			c-0.816-1.693-2.109-2.541-3.868-2.541c-1.979-0.141-3.531,0.601-4.655,2.221c-1.129,1.623-1.699,4.555-1.699,8.784v1.377h11.328
			L431.717,356.951z"/>
	</g>
	<path fill="none" d="M345.604,474.659c40.771,0,76.297-26.088,94.411-64.388H251.194
		C269.311,448.571,304.835,474.659,345.604,474.659z"/>
	<g>
		<path fill="none" d="M360.003,201.527c-42.914,0-80.301,33.835-99.367,83.504h198.729
			C440.295,235.362,402.909,201.527,360.003,201.527z"/>
		<path fill="#E30014" d="M451.533,433.77l1.621-4.159c8.287-21.269,12.669-45.337,12.669-69.61c0-24.274-4.382-48.341-12.669-69.61
			l-1.621-4.158h10.669l0.635,1.729c8.241,22.475,12.422,46.716,12.422,72.04s-4.181,49.565-12.422,72.04l-0.635,1.729H451.533z"/>
		<path fill="#E30014" d="M257.798,433.77l-0.633-1.729c-8.244-22.475-12.424-46.719-12.424-72.04s4.18-49.565,12.424-72.04
			l0.633-1.729h10.67l-1.621,4.158c-8.286,21.274-12.667,45.345-12.667,69.61s4.381,48.336,12.667,69.61l1.621,4.159H257.798z"/>
		<path fill="#E30014" d="M251.779,360c0-25.615,4.677-49.747,12.9-70.854h-5.323c-7.809,21.288-12.215,45.369-12.215,70.854
			s4.406,49.565,12.215,70.854h5.323C256.456,409.748,251.779,385.615,251.779,360z"/>
		<g>
			<path fill="#E30014" d="M460.646,289.146h-5.323c8.225,21.106,12.896,45.238,12.896,70.854s-4.672,49.748-12.896,70.854h5.323
				c7.805-21.288,12.213-45.369,12.213-70.854S468.451,310.435,460.646,289.146z"/>
			<g>
				<path fill="none" d="M360.003,552.395c48.922,0,91.544-41.072,113.285-101.377H246.713
					C268.453,511.322,311.079,552.395,360.003,552.395z"/>
				<path fill="none" d="M360.003,167.606c-48.924,0-91.55,41.071-113.29,101.376h226.575
					C451.547,208.678,408.925,167.606,360.003,167.606z"/>
				<path fill="#FF0204" d="M469.438,454.102l1.562-4.335c9.887-27.435,15.114-58.473,15.114-89.767s-5.228-62.332-15.114-89.766
					l-1.562-4.333h11.839l0.644,1.893c9.762,28.769,14.71,59.791,14.71,92.206s-4.948,63.438-14.71,92.207l-0.644,1.895H469.438z"/>
				<path fill="#FF0204" d="M479.61,268.982h-6.322c9.77,27.113,15.329,58.114,15.329,91.018c0,32.9-5.56,63.904-15.329,91.018
					h6.322c9.278-27.347,14.518-58.279,14.518-91.018S488.889,296.329,479.61,268.982z"/>
				<path fill="#FF0204" d="M238.724,454.102l-0.641-1.895c-9.762-28.77-14.713-59.789-14.713-92.207s4.951-63.438,14.713-92.206
					l0.641-1.893h11.84l-1.563,4.333c-9.889,27.431-15.116,58.469-15.116,89.766s5.228,62.335,15.116,89.767l1.563,4.335H238.724z"
					/>
				<path fill="#FF0204" d="M231.385,360c0-32.903,5.556-63.904,15.328-91.018h-6.321c-9.281,27.347-14.519,58.279-14.519,91.018
					s5.237,63.671,14.519,91.018h6.321C236.94,423.904,231.385,392.9,231.385,360z"/>
			</g>
			<g>
				<path fill="none" d="M360.003,592.377c56.87,0,106.417-49.601,131.688-122.441H228.307
					C253.577,542.776,303.131,592.377,360.003,592.377z"/>
				<path fill="none" d="M360.003,127.623c-56.872,0-106.426,49.601-131.696,122.441H491.69
					C466.42,177.224,416.873,127.623,360.003,127.623z"/>
				<path fill="#FB4003" d="M487.83,473.02l1.482-4.268c11.531-33.229,17.623-70.84,17.623-108.752s-6.092-75.522-17.623-108.752
					l-1.482-4.268h12.976l0.636,1.966C512.761,283.59,518.5,320.953,518.5,360c0,39.044-5.739,76.41-17.059,111.054l-0.636,1.966
					H487.83z"/>
				<path fill="#FB4003" d="M499.044,250.064h-7.354c11.363,32.752,17.824,70.196,17.824,109.936s-6.461,77.184-17.824,109.936
					h7.354c10.785-33.034,16.877-70.397,16.877-109.936S509.829,283.099,499.044,250.064z"/>
				<path fill="#FB4003" d="M219.199,473.02l-0.642-1.966C207.24,436.41,201.503,399.041,201.503,360s5.737-76.41,17.055-111.054
					l0.642-1.966h12.971l-1.482,4.268c-11.529,33.229-17.622,70.835-17.622,108.752c0,37.915,6.093,75.522,17.622,108.752
					l1.482,4.268H219.199z"/>
				<path fill="#FB4003" d="M210.486,360c0-39.739,6.458-77.184,17.82-109.936h-7.349c-10.789,33.034-16.879,70.397-16.879,109.936
					s6.09,76.901,16.879,109.936h7.349C216.944,437.184,210.486,399.739,210.486,360z"/>
			</g>
		</g>
	</g>
</g>
</svg>
